<svg x="0px" y="0px" viewBox="0 0 640 100">
    <g>
	    <polygon fill="#D51118" points="40,35.8 40.6,35.7 45,52 62.3,51.6 48.1,16.3 31.3,16.6 18.8,52.5 36,52.2 	"/>
	    <polygon fill="#D51118" points="96.8,50.1 97.3,50 97.7,50.9 128.9,50.3 129.3,49.4 129.9,49.5 129.8,50.3 147.2,50 146.5,14.3 128.1,14.7 113.3,48.4 97.3,15.3 78.9,15.7 79.6,51.3 96.9,51 	"/>
        <path fill="#D51118" d="M212.7,46.1c1.1-2.9,1.6-5.8,1.5-8.9c0-2.4-0.4-4.8-1.2-7.1c-0.7-2.3-1.9-4.5-3.4-6.5 c-1.5-2-3.3-3.8-5.4-5.3c-2.1-1.5-4.6-2.7-7.6-3.5c-2.9-0.8-6.1-1.2-9.6-1.2L158,14.1l0.7,35.6l52.7-1 C211.9,47.8,212.3,47,212.7,46.1z M195.7,39.8c-0.2,1.2-0.7,2.3-1.3,3.3c-0.6,1-1.5,1.8-2.7,2.5c-1.2,0.6-2.5,1-4.1,1L177,46.7 l-0.3-16.9l10.7-0.2c1.5,0,2.9,0.2,4.1,0.8c1.2,0.6,2.1,1.4,2.8,2.3c0.6,1,1.1,2.1,1.4,3.2c0.1,0.6,0.2,1.3,0.2,1.9 C195.9,38.6,195.8,39.2,195.7,39.8z"/>	
		<rect x="221.8" y="12.7" transform="matrix(0.9998 -1.970613e-002 1.970613e-002 0.9998 -0.556 4.5586)" fill="#D51118" width="18.4" height="35.6"/>
		<rect x="277.1" y="11.6" transform="matrix(0.9998 -1.970613e-002 1.970613e-002 0.9998 -0.5238 5.6479)" fill="#D51118" width="18.4" height="35.6"/>
    	<path fill="#D51118" d="M323.7,33.2c0-2,0.8-3.7,2.5-5.1c1.7-1.4,3.7-2.2,6.1-2.5c0.5-0.1,0.9-0.1,1.4-0.1c1.9-0.1,3.8,0.3,5.7,1 c2.4,0.9,4.2,2.3,5.5,4.3l14.9-6c-1.5-2.9-3.2-5.4-5.3-7.4c-2.1-2.1-4.3-3.6-6.7-4.7c-2.3-1.1-4.7-1.9-7-2.3 c-2.3-0.5-4.6-0.7-7-0.6c-3.7,0.1-7.3,0.6-10.7,1.7c-3.4,1.1-6.4,2.6-9.2,4.5c-2.7,1.9-4.8,4.4-6.4,7.5c-1.6,3-2.3,6.4-2.3,10.2 l0.3,13.3l18.4-0.4L323.7,33.2z"/>
	    <path fill="#D51118" d="M383.5,32.1c0-2.3,1.1-4.2,3.4-5.7c2.3-1.4,5-2.2,8-2.3c2.1,0,4,0.2,5.8,0.7c1.8,0.5,3.3,1.3,4.5,2.5 c1.2,1.2,1.8,2.6,1.9,4.3l0.3,13.2l18.4-0.4l-0.3-13.2c-0.1-3-0.7-5.8-1.8-8.4c-1.2-2.6-2.7-4.7-4.7-6.5c-2-1.8-4.3-3.3-6.9-4.5 c-2.6-1.2-5.3-2.1-8.3-2.7c-2.9-0.6-5.9-0.8-9-0.7c-3.1,0.1-6.1,0.4-8.9,1.1c-2.9,0.7-5.6,1.7-8.1,3c-2.6,1.3-4.8,2.9-6.7,4.7	c-1.9,1.8-3.4,4.1-4.4,6.7s-1.6,5.4-1.5,8.5l0.3,13.2l18.4-0.4L383.5,32.1z"/>
    	<polygon fill="#D51118" points="451.4,36.1 451.9,36 455.7,43.9 473.5,43.5 470.4,37.1 452.3,8.3 434.8,8.7 435.5,44.3 452.9,43.9"/>
    	<path fill="#D51118" d="M492.8,7.5l-18.4,0.4l0.6,30.9c0,0,0.3,1.6,0.9,4.7l17.6-0.3L492.8,7.5z"/>
    	<polygon fill="#D51118" points="566.2,7.1 565.6,6.1 545.3,6.5 532.6,31.8 519,7 497.6,7.4 520.1,42.6 545.6,42.1 	"/>
	    <polygon fill="#D51118" points="586.7,39.9 613.9,39.4 633.6,4.7 612.2,5.2 600,28.8 587,5.7 566.9,6.1 566.2,7.1 	"/>
    	<polygon fill="#D51118" points="54.5,91.7 76,91.5 63.7,59.2 46.8,59.2 	"/>
	    <polygon fill="#D51118" points="25.8,91.5 34.9,58.8 17.6,58.8 6.1,91.3 	"/>
    	<polygon fill="#D51118" points="128.4,72.6 128.2,92.3 146.7,92.4 146.9,59.7 129.6,59.6 	"/>
	    <polygon fill="#D51118" points="106.7,82 119.3,82.1 128.7,59.6 97.4,59.4 	"/>
    	<polygon fill="#D51118" points="97.5,92 97.6,72.3 96.6,59.4 79.4,59.2 79.1,91.9 	"/>
	    <path fill="#D51118" d="M176.5,92.6l0.2-20l10.8,0.1c4.3,0,8.1-0.6,11.6-2c3.4-1.3,6.3-3.1,8.4-5.4c1.5-1.6,2.6-3.3,3.6-5.1 l-52.7-0.4l-0.3,32.7L176.5,92.6z"/>
    	<polygon fill="#D51118" points="269.8,93.4 269.9,76.3 240.2,76.1 240.3,60.5 221.9,60.3 221.7,93"/>
	    <rect x="270" y="68" transform="matrix(-7.727113e-003 1 -1 -7.727113e-003 365.6697 -208.5415)" fill="#D51118" width="32.7" height="18.4"/>
    	<path fill="#D51118" d="M307.7,81.4c1.6,3,3.8,5.5,6.5,7.4c2.7,1.9,5.7,3.4,9.1,4.4c3.4,1,6.9,1.5,10.5,1.6c2.4,0,4.8-0.2,7.1-0.8 c2.4-0.5,4.8-1.4,7.1-2.6c2.4-1.2,4.6-2.7,6.7-4.7c2.1-2,3.9-4.3,5.4-7l-16-7.1c-0.8,1.8-2,3.2-3.7,4.3c-1.7,1.1-3.5,1.6-5.3,1.8 c-0.4,0-0.7,0-1.1,0c-1.5,0-2.9-0.2-4.3-0.6c-1.7-0.5-3.2-1.3-4.3-2.5c-1.1-1.2-1.7-2.6-1.7-4.2l0.1-10.3L305.4,61l-0.1,10.3 C305.3,75,306,78.4,307.7,81.4z"/>
	    <path fill="#D51118" d="M366.7,80.1c1.1,2.6,2.6,4.8,4.5,6.6c1.9,1.8,4.2,3.4,6.7,4.7c2.6,1.3,5.3,2.3,8.2,2.9c2.9,0.6,5.9,1,9,1 c3.1,0,6.1-0.3,8.9-0.9c2.9-0.6,5.6-1.5,8.2-2.8c2.6-1.3,4.8-2.8,6.8-4.6c1.9-1.8,3.5-4,4.6-6.6c1.1-2.6,1.7-5.4,1.7-8.4l0.1-10.2	l-18.4-0.1L407,71.8c0,2.3-1.2,4.1-3.5,5.4c-2.3,1.3-5.1,1.9-8.3,1.9c-3.2,0-6-0.7-8.3-2c-2.3-1.3-3.5-3.2-3.5-5.5l0.1-10.1	l-18.4-0.1l-0.1,10.2C365.1,74.7,365.6,77.5,366.7,80.1z"/>
    	<polygon fill="#D51118" points="453.4,94.8 453.6,67.5 452.7,62.1 435.3,62 435,94.6 	"/>
	    <path fill="#D51118" d="M458.1,67.9l16.3,27l18.7,0.1l0.3-32.7l-17.6-0.1c0.1,0.4,0.1,0.7,0.2,1.2c0.6,3.9,1,5.9,1,5.9l-0.5,0.1 l-3.2-7.2l-17.8-0.1L458.1,67.9z"/>
    	<polygon fill="#D51118" points="523.2,95.3 541.6,95.5 541.8,68.6 545.4,62.8 519.9,62.6 523.4,68.4 	"/>
	    <polygon fill="#D51118" points="565.8,95.7 587.3,95.8 599.9,72.6 612.5,96 633.9,96.2 614.6,63.4 585.7,63.1 	"/>
    </g>
</svg>
