<?xml version="1.0" encoding="UTF-8" standalone="no"?>
<!-- Generator: Adobe Illustrator 16.0.0, SVG Export Plug-In . SVG Version: 6.00 Build 0)  -->

<svg
   xmlns:dc="http://purl.org/dc/elements/1.1/"
   xmlns:cc="http://creativecommons.org/ns#"
   xmlns:rdf="http://www.w3.org/1999/02/22-rdf-syntax-ns#"
   xmlns:svg="http://www.w3.org/2000/svg"
   xmlns="http://www.w3.org/2000/svg"
   xmlns:sodipodi="http://sodipodi.sourceforge.net/DTD/sodipodi-0.dtd"
   xmlns:inkscape="http://www.inkscape.org/namespaces/inkscape"
   version="1.0"
   id="Слой_1"
   x="0px"
   y="0px"
   width="595.28px"
   height="255.12px"
   viewBox="0 0 595.28 255.12"
   enable-background="new 0 0 595.28 255.12"
   xml:space="preserve"
   sodipodi:docname="lines.svg"
   inkscape:version="0.92.1 15371"><metadata
     id="metadata108"><rdf:RDF><cc:Work
         rdf:about=""><dc:format>image/svg+xml</dc:format><dc:type
           rdf:resource="http://purl.org/dc/dcmitype/StillImage" /></cc:Work></rdf:RDF></metadata><defs
     id="defs106" /><sodipodi:namedview
     pagecolor="#ffffff"
     bordercolor="#666666"
     borderopacity="1"
     objecttolerance="10"
     gridtolerance="10"
     guidetolerance="10"
     inkscape:pageopacity="0"
     inkscape:pageshadow="2"
     inkscape:window-width="1867"
     inkscape:window-height="1056"
     id="namedview104"
     showgrid="false"
     inkscape:zoom="2.370313"
     inkscape:cx="290.88985"
     inkscape:cy="127.56"
     inkscape:window-x="53"
     inkscape:window-y="24"
     inkscape:window-maximized="1"
     inkscape:current-layer="Слой_1" /><path
     fill="none"
     stroke="#12100B"
     stroke-width="0.5"
     stroke-miterlimit="10"
     d="M9.496,114.054c0,0,64.939,0.911,100.724-9.093  c0,0,57.082-12.221,92.444-11.555c0,0,43.436,6.27,60.275-3.734c0,0,17.261-5.001,29.049-39.011c0,0,10.946-22.673,22.734-6.334  c0,0,23.576,16.003,41.257,18.338c0,0,21.943,0.489,57.31,15.453c0,0,27.696,21.391,46.221,24.059c0,0,91.777,5.107,129.667,12.109"
     id="path79"
     style="stroke:#aaaaaa;stroke-opacity:1" /><path
     fill="none"
     stroke="#12100B"
     stroke-width="0.5"
     stroke-miterlimit="10"
     d="M9.496,112.745l98.623,4.474  c0,0,57.882-2.051,75.986-6.052c0,0,42.481-2.55,63.029-4.802c0.57-0.064,36.854,4.964,53.693-21.711c0,0,2.801-8.209,24.744-3.502  c0,0,16.413,1.737,38.868,6.304c25.932,5.271,36.627,5.764,57.779,13.919c0,0,28.304,9.792,86.138,7.638  c0,0,50.929,1.608,80.82,5.275"
     id="path81"
     style="stroke:#aaaaaa;stroke-opacity:1" /><path
     fill="none"
     stroke="#12100B"
     stroke-width="0.5"
     stroke-miterlimit="10"
     d="M7.922,112.995c0,0,48.633,6.445,59.578,7.446  c0,0,40.504,10.094,64.081,11.429c0,0,46.234-0.78,89.291-6.368c0.024,0.006,36.768-0.538,59.749,4.071  c0,0,10.041,4.155,28.144-9.182c33.434-12.957,18.813-10.957,51.475-6.337c0,0,49.652-6.274,72.387-1.273c0,0,27.445,2.334,45.97,0  c0,0,69.238-1.495,82.289,0.839c0,0,12.83-0.579,28.293,0.667"
     id="path83"
     style="stroke:#aaaaaa;stroke-opacity:1" /><path
     fill="none"
     stroke="#12100B"
     stroke-width="0.5"
     stroke-miterlimit="10"
     d="M7.922,112.995c0,0,49.548,8.334,57.126,10.001  c0,0,45.599,20.625,78.438,27.961c0,0,51.035,3.557,75.722-9.228c0,0,33.206-3.71,47.52,5.627c0,0,19.01,22.737,29.955,21.069  c0,0,39.131-30.373,61.823-32.739c0,0,50.396-15.49,92.074-14.488c0,0,111.398-9.48,139.605-7.145"
     id="path85"
     style="stroke:#aaaaaa;stroke-opacity:1" /><path
     fill="none"
     stroke="#12100B"
     stroke-width="0.5"
     stroke-miterlimit="10"
     d="M7.922,112.995c0,0,48.022,8.969,56.862,11.97  c0,0,35.387,19.813,53.49,32.149c0,0,25.942,19.25,44.045,18.583c0,0,27.353-1.237,46.297-11.907c0,0,29.578-16,50.628-1.329  c0,0,24.308,44.409,32.186,44.005c0,0,10.662-0.76,24.133-21.431c0,0,17.622-16.609,69.044-35.346c0,0,46.522-20.974,73.851-22.929  c0.581-0.042,58.118-7.951,72.222-7.617l59.505-5.09"
     id="path87"
     style="stroke:#aaaaaa;stroke-opacity:1" /><path
     fill="none"
     stroke="#12100B"
     stroke-width="0.5"
     stroke-miterlimit="10"
     d="M7.922,112.995c0,0,38.936,8.507,48.197,12.508  c0,0,32.105,24.522,43.049,34.858c0,0,36.629,31.341,50.941,33.008c0,0,36.628,7.002,60.624-9.669c0,0,24.722-19.573,43.667,9.768  c0,0,10.768,41.494,27.685,42.769c0,0,13.94,1.316,25.308-17.021c0,0,20.801-21.178,40.166-28.18l53.469-27.896  c0,0,44.08-25.229,49.552-24.563c0,0,49.822-11.576,72.658-14.881l65.938-9.408"
     id="path89"
     style="stroke:#aaaaaa;stroke-opacity:1" /><path
     fill="none"
     stroke="#12100B"
     stroke-width="0.5"
     stroke-miterlimit="10"
     d="M6.515,112.781c0,0,61.046-0.282,96.83-10.284  c0,0,58.94-20.006,94.304-19.339c0,0,45.47,4.335,62.309-5.668c0,0,17.261-5.001,29.048-39.011c0,0,10.947-22.672,22.734-6.335  c0,0,23.576,16.005,41.259,18.339c0,0,21.05,4.084,56.414,19.046c0,0,25.118,24.627,43.644,27.295c0,0,98.23,10.461,136.12,17.464"
     id="path91"
     style="stroke:#aaaaaa;stroke-opacity:1" /><path
     fill="none"
     stroke="#12100B"
     stroke-width="0.5"
     stroke-miterlimit="10"
     d="M6.515,112.781l95.568,0.135  c0,0,61.046-5.751,79.147-9.753c0,0,43.056-1.894,63.606-4.146c0.566-0.063,1.117-0.126,1.649-0.189  c19.788-2.333,33.26-4.001,50.1-30.674c0,0,8-5.836,20.63,1.417c0,0,30.731,7.251,52.625,5.252c0,0,35.645,9.998,71.429,28.337  c0,0,39.151,5.001,63.571,2.667c0,0,55.455,4.561,85.346,8.228"
     id="path93"
     style="stroke:#aaaaaa;stroke-opacity:1" /><path
     fill="none"
     stroke="#12100B"
     stroke-width="0.5"
     stroke-miterlimit="10"
     d="M6.515,112.781c0,0,44.348,2.612,55.294,3.613  c0,0,47.011,7.775,70.585,9.108c0,0,56.415-0.221,85.886-8.112c0,0,40.585-3.103,60.544-3.103c0,0,9.211-0.191,27.314-13.527  c0,0,13.395-10.766,59.071-3.932c0,0,39.012,4.997,61.746,9.998c0,0,23.154,6.669,41.679,4.335c0,0,74.124-1.066,87.176,1.268  c0,0,17.902,0.612,33.367,1.858"
     id="path95"
     style="stroke:#aaaaaa;stroke-opacity:1" /><path
     fill="none"
     stroke="#12100B"
     stroke-width="0.5"
     stroke-miterlimit="10"
     d="M6.515,112.781c0,0,44.662,4.835,52.238,6.503  c0,0,48.803,16.89,81.641,24.223c0,0,49.676,4.559,73.254-9.89c0,0,35.786-7.78,50.098,1.557c0,0,17.263,17.338,28.207,15.67  c0,0,39.995-26.341,63.571-27.341c0,0,49.536-8.011,91.217-7.009c0,0,114.229-4.543,142.436-2.207"
     id="path97"
     style="stroke:#aaaaaa;stroke-opacity:1" /><path
     fill="none"
     stroke="#12100B"
     stroke-width="0.5"
     stroke-miterlimit="10"
     d="M6.515,112.781c0,0,41.32,5.875,50.162,8.877  c0,0,38.669,15.181,56.772,27.517c0,0,27.786,15.005,45.89,14.338c0,0,26.944,2,45.889-8.669c0,0,35.786-16.004,56.836-1.334  c0,0,22.733,32.677,26.101,35.011c0,0,10.946,5.001,24.419-15.671c0,0,15.998-17.672,69.043-35.344c0,0,49.548-11.614,76.878-13.572  c0.579-0.041,1.15-0.076,1.709-0.103c26.945-1.334,51.671-6.054,65.772-5.72l63.191-3.825"
     id="path99"
     style="stroke:#aaaaaa;stroke-opacity:1" /><path
     fill="none"
     stroke="#12100B"
     stroke-width="0.5"
     stroke-miterlimit="10"
     d="M6.515,112.781c0,0,38.332,5.702,47.595,9.703  c0,0,31.134,15.355,42.078,25.692c0,0,36.628,31.342,50.942,33.009c0,0,36.626,7.004,60.624-9.669c0,0,34.572-18.903,53.517,10.438  c0,0,13.205,40.431,17.835,42.098c0,0,13.94,1.317,25.306-17.022c0,0,20.802-21.177,40.167-28.178l53.468-27.895  c0,0,42.381-19.122,47.854-18.457c0,0,52.887-10.626,68.431-9.279l75.855-9.167"
     id="path101"
     style="stroke:#aaaaaa;stroke-opacity:1" /></svg>